<?xml version="1.0" standalone="no"?>
<!DOCTYPE svg PUBLIC "-//W3C//DTD SVG 20010904//EN"
 "http://www.w3.org/TR/2001/REC-SVG-20010904/DTD/svg10.dtd">
<svg version="1.0" xmlns="http://www.w3.org/2000/svg"
 width="48.000000pt" height="48.000000pt" viewBox="0 0 48.000000 48.000000"
 preserveAspectRatio="xMidYMid meet">

<g transform="translate(0.000000,48.000000) scale(0.100000,-0.100000)"
fill="#000000" stroke="none">
<path d="M215 393 c-9 -21 -20 -47 -25 -59 -7 -17 -20 -22 -66 -27 -31 -3 -61
-10 -66 -15 -6 -6 8 -24 37 -48 50 -42 50 -39 29 -141 -8 -42 4 -42 67 -3 l49
30 49 -30 c49 -30 71 -37 71 -22 0 5 -5 34 -11 65 l-12 57 47 41 c27 24 43 46
38 51 -4 4 -34 12 -66 16 l-58 7 -23 55 c-13 30 -28 56 -34 58 -5 2 -17 -14
-26 -35z"/>
</g>
</svg>
